<svg width="27" height="35" viewBox="0 0 27 35" fill="none" xmlns="http://www.w3.org/2000/svg">
<path d="M17.1221 33.1211C8.28542 33.1211 1.12207 25.9577 1.12207 17.1211C1.12207 8.28445 8.28542 1.12109 17.1221 1.12109M8.87937 27.0094C3.42714 22.4348 2.71633 14.3069 7.29092 8.85489C11.8655 3.40265 19.9934 2.69185 25.4455 7.26644M12.5155 25.7688C7.74264 23.2491 5.91543 17.3366 8.43505 12.5643C10.9547 7.79055 16.8658 5.96424 21.6395 8.48386M17.1221 23.7807C13.4446 23.7807 10.4631 20.7992 10.4631 17.1216C10.4631 13.444 13.4446 10.4625 17.1221 10.4625" stroke="black" stroke-width="2.24394" stroke-miterlimit="10"/>
<path d="M19.1786 15.2598C18.9186 14.9859 18.6466 14.7675 18.3627 14.6052C18.0787 14.4429 17.7883 14.3618 17.4915 14.3618C17.084 14.3618 16.7189 14.4365 16.3981 14.5858C16.0763 14.7361 15.8016 14.9352 15.573 15.1851C15.3434 15.434 15.171 15.7207 15.053 16.0452C14.9359 16.3698 14.8769 16.7063 14.8769 17.0547C14.8769 17.4042 14.9359 17.7416 15.053 18.0652C15.171 18.3897 15.3434 18.6764 15.573 18.9253C15.8016 19.1751 16.0764 19.3743 16.3981 19.5246C16.7189 19.6739 17.084 19.7486 17.4915 19.7486C17.8372 19.7486 18.1589 19.6767 18.4558 19.5338C18.7527 19.39 19.0053 19.1816 19.2155 18.9069L20.6989 20.5156C20.4767 20.7397 20.2195 20.9333 19.9291 21.0955C19.6387 21.2578 19.3455 21.3887 19.0487 21.4883C18.7527 21.5878 18.4678 21.6588 18.1959 21.7031C17.9239 21.7464 17.6888 21.7685 17.4915 21.7685C16.8241 21.7685 16.1935 21.6561 15.6006 21.432C15.0069 21.2071 14.4943 20.89 14.062 20.4779C13.6287 20.0667 13.2857 19.5707 13.0331 18.9908C12.7796 18.4109 12.6523 17.7664 12.6523 17.0547C12.6523 16.3448 12.7796 15.6995 13.0331 15.1196C13.2857 14.5397 13.6287 14.0437 14.062 13.6325C14.4943 13.2213 15.007 12.9032 15.6006 12.6783C16.1934 12.4543 16.824 12.3418 17.4915 12.3418C18.0594 12.3418 18.6319 12.4515 19.2063 12.6691C19.7816 12.8876 20.285 13.2333 20.7173 13.7071L19.1786 15.2598Z" fill="black"/>
</svg>
