<svg width="32" height="32" viewBox="0 0 32 32" fill="none" xmlns="http://www.w3.org/2000/svg">
<path d="M10.6673 0C10.9502 0 11.2215 0.112372 11.4216 0.312396C11.6216 0.51242 11.734 0.783711 11.734 1.06659V2.13318H16.001C16.8497 2.13318 17.6637 2.47029 18.2638 3.07037C18.864 3.67044 19.2011 4.48431 19.2011 5.33294V6.57658C18.948 6.66618 18.7083 6.79132 18.4822 6.95202C17.9701 7.31466 17.5861 7.82662 17.3514 8.46871L16.6047 10.7555C16.4793 11.1332 16.2674 11.4765 15.986 11.7581C15.7087 12.0375 15.3652 12.2722 15.0238 12.3788L12.6962 13.1254C12.276 13.2738 11.8933 13.5125 11.5752 13.8247C11.2571 14.1368 11.0113 14.5149 10.855 14.9322H5.33365C4.48491 14.9322 3.67093 14.5951 3.07077 13.995C2.47062 13.395 2.13346 12.5811 2.13346 11.7325V5.33294C2.13346 4.48431 2.47062 3.67044 3.07077 3.07037C3.67093 2.47029 4.48491 2.13318 5.33365 2.13318H9.60057V1.06659C9.60057 0.783711 9.71296 0.51242 9.91301 0.312396C10.1131 0.112372 10.3844 0 10.6673 0ZM12.7368 18.8743C12.2874 18.7246 11.8801 18.4702 11.5484 18.132H3.20019C2.35145 18.132 1.53747 18.4691 0.937314 19.0692C0.337162 19.6693 0 20.4831 0 21.3318V22.0784C0 24.8622 1.28008 26.878 3.3154 28.143C5.28885 29.3696 7.91514 29.8645 10.6673 29.8645C13.4344 29.8645 16.0607 29.3717 18.032 28.143C18.4815 27.8657 18.8897 27.5507 19.2566 27.198C19.148 26.6233 19.2211 26.0291 19.4657 25.4979C19.1243 25.4125 18.8043 25.2632 18.5056 25.0499C17.9983 24.6784 17.6117 24.1657 17.3941 23.5759L16.6261 21.2464C16.434 20.7558 16.242 20.4785 16.0074 20.2438C15.7209 19.9672 15.3781 19.7555 15.0025 19.6231L12.7368 18.8743ZM7.46711 10.1326C7.89148 10.1326 8.29847 9.96403 8.59855 9.66399C8.89863 9.36396 9.06721 8.95702 9.06721 8.53271C9.06721 8.10839 8.89863 7.70145 8.59855 7.40142C8.29847 7.10138 7.89148 6.93282 7.46711 6.93282C7.04274 6.93282 6.63575 7.10138 6.33567 7.40142C6.0356 7.70145 5.86702 8.10839 5.86702 8.53271C5.86702 8.95702 6.0356 9.36396 6.33567 9.66399C6.63575 9.96403 7.04274 10.1326 7.46711 10.1326ZM15.4676 8.53271C15.4676 8.10839 15.299 7.70145 14.9989 7.40142C14.6989 7.10138 14.2919 6.93282 13.8675 6.93282C13.4431 6.93282 13.0361 7.10138 12.7361 7.40142C12.436 7.70145 12.2674 8.10839 12.2674 8.53271C12.2674 8.95702 12.436 9.36396 12.7361 9.66399C13.0361 9.96403 13.4431 10.1326 13.8675 10.1326C14.2919 10.1326 14.6989 9.96403 14.9989 9.66399C15.299 9.36396 15.4676 8.95702 15.4676 8.53271ZM21.0743 9.13426L21.8168 11.4189C22.047 12.1138 22.4367 12.7452 22.9545 13.2626C23.4724 13.7801 24.1042 14.1692 24.7993 14.3989L27.0864 15.1413L27.1312 15.1541C27.3074 15.2161 27.4601 15.3313 27.5681 15.4838C27.676 15.6362 27.734 15.8184 27.734 16.0052C27.734 16.192 27.676 16.3742 27.5681 16.5267C27.4601 16.6791 27.3074 16.7943 27.1312 16.8564L24.8463 17.5987C24.1507 17.8281 23.5185 18.2171 23.0003 18.7346C22.482 19.2521 22.092 19.8836 21.8616 20.5788L21.1191 22.8613C21.0571 23.0375 20.9419 23.1901 20.7894 23.298C20.6369 23.406 20.4547 23.464 20.2679 23.464C20.081 23.464 19.8988 23.406 19.7463 23.298C19.5939 23.1901 19.4787 23.0375 19.4166 22.8613L18.6742 20.5788C18.4074 19.7706 17.9258 19.0502 17.281 18.4946C16.8148 18.0899 16.2732 17.781 15.6873 17.5859L13.4003 16.8436C13.224 16.7815 13.0714 16.6663 12.9634 16.5139C12.8555 16.3614 12.7975 16.1792 12.7975 15.9924C12.7975 15.8056 12.8555 15.6234 12.9634 15.471C13.0714 15.3185 13.224 15.2033 13.4003 15.1413L15.6873 14.3989C16.3742 14.1633 16.997 13.7715 17.5068 13.2544C18.0165 12.7373 18.3994 12.109 18.6251 11.4189L19.3676 9.13639C19.4291 8.95944 19.5443 8.80605 19.697 8.6975C19.8498 8.58895 20.0325 8.53063 20.2199 8.53063C20.4073 8.53063 20.59 8.58895 20.7427 8.6975C20.8955 8.80605 21.0106 8.95944 21.0722 9.13639M31.5368 26.0546L29.9047 25.5256C29.4083 25.3606 28.957 25.0823 28.5867 24.7128C28.2165 24.3433 27.9373 23.8927 27.7713 23.3967L27.2422 21.7648C27.198 21.6388 27.1158 21.5296 27.0068 21.4524C26.8979 21.3752 26.7677 21.3337 26.6341 21.3337C26.5006 21.3337 26.3703 21.3752 26.2614 21.4524C26.1525 21.5296 26.0703 21.6388 26.0261 21.7648L25.4927 23.3967C25.3304 23.8889 25.0567 24.337 24.693 24.7062C24.3293 25.0754 23.8853 25.3558 23.3955 25.5256L21.7634 26.0546C21.6695 26.0881 21.5846 26.1428 21.5153 26.2145C21.4461 26.2862 21.3943 26.3729 21.3642 26.468C21.334 26.563 21.3262 26.6637 21.3415 26.7622C21.3567 26.8607 21.3945 26.9544 21.4519 27.0359C21.5288 27.1425 21.6376 27.2279 21.7634 27.2705L23.3955 27.8017C23.8929 27.9675 24.3447 28.2471 24.7151 28.6181C25.0854 28.9892 25.3641 29.4415 25.529 29.9391L26.0581 31.5689C26.1023 31.6949 26.1845 31.804 26.2934 31.8813C26.4023 31.9585 26.5326 32 26.6661 32C26.7997 32 26.9299 31.9585 27.0388 31.8813C27.1478 31.804 27.23 31.6949 27.2742 31.5689L27.8054 29.9391C27.9709 29.4429 28.2496 28.992 28.6196 28.6222C28.9895 28.2523 29.4404 27.9736 29.9367 27.8081L31.5688 27.2791C31.6948 27.2349 31.804 27.1527 31.8813 27.0438C31.9585 26.9348 32 26.8046 32 26.6711C32 26.5376 31.9585 26.4074 31.8813 26.2985C31.804 26.1895 31.6948 26.1073 31.5688 26.0631L31.5368 26.0546Z" fill="black"/>
</svg>
