<svg width="93" height="32" viewBox="0 0 93 32" fill="none" xmlns="http://www.w3.org/2000/svg">
<path d="M51.9136 0.054872C45.9187 0.054872 41.0418 4.96927 41.0418 11.0107C41.0418 17.0521 45.9187 21.9659 51.9136 21.9659C57.9084 21.9659 62.786 17.0515 62.786 11.0107C62.786 4.96989 57.9078 0.054872 51.9136 0.054872ZM51.9136 17.8579C48.1667 17.8579 45.1185 14.7857 45.1185 11.0107C45.1185 7.23565 48.1667 4.16346 51.9136 4.16346C55.6605 4.16346 58.7087 7.23504 58.7087 11.0107C58.7087 14.7864 55.6611 17.8579 51.9136 17.8579Z" fill="black"/>
<path d="M36.9033 0.0974131C36.5319 0.0554887 36.1586 0.0332924 35.7854 0.0308263C35.5994 0.0308263 35.4214 0.0363751 35.2391 0.0394577C35.0567 0.0425404 34.8756 0.0598026 34.6939 0.0709002C33.9615 0.128854 33.2365 0.255244 32.5274 0.447603C31.1024 0.835403 29.7288 1.50989 28.5412 2.46799C27.3359 3.43595 26.3704 4.6721 25.72 6.08027C25.3957 6.78188 25.1565 7.52049 25.0072 8.27945C24.9332 8.6543 24.8787 9.03285 24.8445 9.41387C24.8322 9.60315 24.8108 9.79304 24.8084 9.9817L24.8016 10.2647L24.7986 10.4065V10.5236L24.8169 17.8616L24.842 21.53H28.9193L28.945 17.8616L28.9634 10.523V10.4108L28.9664 10.3233L28.9713 10.1475C28.9713 10.0298 28.9885 9.91635 28.9952 9.79982C29.0172 9.5717 29.0509 9.34482 29.0962 9.1204C29.1855 8.67896 29.325 8.24923 29.511 7.83986C29.886 7.01863 30.4459 6.29729 31.1464 5.73192C31.8537 5.15731 32.7011 4.72821 33.6171 4.47296C34.0802 4.34534 34.5544 4.26087 35.0329 4.22141C35.154 4.21463 35.2745 4.20292 35.3963 4.1986C35.5181 4.19429 35.6423 4.19059 35.7603 4.1912C35.9947 4.1912 36.2253 4.20662 36.4591 4.22819C37.3878 4.32252 38.2879 4.60983 39.101 5.07161L41.136 1.51051C39.8358 0.74909 38.3949 0.26881 36.9033 0.0974131Z" fill="black"/>
<path d="M10.8724 0C4.87699 0 0 4.9144 0 10.9552C0 16.996 4.87699 21.911 10.8724 21.911H14.448V17.8024H10.8724C7.12551 17.8024 4.07732 14.7309 4.07732 10.9552C4.07732 7.17955 7.12551 4.10797 10.8724 4.10797C14.6194 4.10797 17.6835 7.17955 17.6835 10.9552V21.0448C17.6835 24.7958 14.6524 27.8507 10.9391 27.8902C9.16234 27.8754 7.46325 27.1559 6.2102 25.8864L3.3272 28.7916C5.32547 30.8156 8.03288 31.9673 10.8657 31.9982V32C10.8902 32 10.9147 32 10.9385 32H11.015V31.9982C16.9248 31.9174 21.71 27.0628 21.7375 21.0941L21.7412 10.6864C21.5993 4.77013 16.7779 0 10.8724 0Z" fill="black"/>
<path d="M75.9192 0.054872C69.9244 0.054872 65.0474 4.96927 65.0474 11.0107C65.0474 17.0521 69.9244 21.9659 75.9192 21.9659H79.6392V17.8579H75.9192C72.1723 17.8579 69.1241 14.7857 69.1241 11.0107C69.1241 7.23565 72.1723 4.16346 75.9192 4.16346C79.4673 4.16346 82.3876 6.91814 82.6874 10.417H82.6813V31.4531H86.7586V11.0107C86.7574 4.96927 81.914 0.054872 75.9192 0.054872Z" fill="black"/>
<path d="M92.9896 0.611603H92.4084L91.6154 1.85269L90.7968 0.611603H90.21V2.82126H90.8653V1.74603L91.4465 2.61411H91.7635L92.3343 1.7189L92.3447 2.82126H93L92.9896 0.611603Z" fill="black"/>
<path d="M87.811 1.13936H88.5244V2.82126H89.2433V1.13936H89.9616V0.611603H87.811V1.13936Z" fill="black"/>
</svg>
