<?xml version="1.0" encoding="UTF-8"?>
<svg version="1.1" xmlns="http://www.w3.org/2000/svg" width="32" height="23">
<path d="M0 0 C1.98 0 3.96 0 6 0 C6 1.32 6 2.64 6 4 C7.32 4 8.64 4 10 4 C10 5.65 10 7.3 10 9 C11.32 9 12.64 9 14 9 C14 7.35 14 5.7 14 4 C15.32 4 16.64 4 18 4 C18 2.68 18 1.36 18 0 C19.98 0 21.96 0 24 0 C24 5.94 24 11.88 24 18 C25.32 18 26.64 18 28 18 C28 19.65 28 21.3 28 23 C23.38 23 18.76 23 14 23 C14 21.68 14 20.36 14 19 C12.68 19 11.36 19 10 19 C10 20.32 10 21.64 10 23 C5.38 23 0.76 23 -4 23 C-4 21.35 -4 19.7 -4 18 C-2.68 18 -1.36 18 0 18 C0 12.06 0 6.12 0 0 Z M6 14 C6 15.32 6 16.64 6 18 C6.99 18 7.98 18 9 18 C9 16.68 9 15.36 9 14 C8.01 14 7.02 14 6 14 Z M15 14 C15 15.32 15 16.64 15 18 C15.99 18 16.98 18 18 18 C18 16.68 18 15.36 18 14 C17.01 14 16.02 14 15 14 Z " fill="#000000" transform="translate(4,0)"/>
</svg>
