<svg width="32" height="32" viewBox="0 0 32 32" fill="none" xmlns="http://www.w3.org/2000/svg">
<path d="M29.8904 13.0965C30.1643 12.2844 30.304 11.4341 30.304 10.5782C30.304 9.16203 29.9218 7.77137 29.1966 6.54926C27.7392 4.04631 25.0358 2.50104 22.1101 2.50104C21.5337 2.50104 20.9589 2.56109 20.3953 2.68021C19.6372 1.83749 18.7067 1.16289 17.6651 0.700886C16.6235 0.238912 15.4944 3.07798e-05 14.3524 0H14.3011L14.2819 9.24647e-05C10.7383 9.24647e-05 7.59571 2.25625 6.50638 5.58231C5.37876 5.8102 4.31351 6.27313 3.3819 6.9401C2.45028 7.6071 1.67383 8.46274 1.1045 9.44979C0.381454 10.6793 0.000430917 12.0754 0 13.4969C0.000277018 15.4946 0.751827 17.4212 2.10915 18.9035C1.83518 19.7155 1.69544 20.5658 1.69532 21.4217C1.69544 22.8379 2.07776 24.2286 2.80299 25.4507C3.66544 26.9323 4.98248 28.1054 6.56422 28.8008C8.14593 29.4961 9.91062 29.6777 11.6038 29.3197C12.362 30.1624 13.2925 30.8368 14.3342 31.2988C15.3759 31.7608 16.505 32 17.6471 32H17.6984H17.7192C21.2647 32 24.4063 29.7435 25.4956 26.4145C26.6232 26.1865 27.6884 25.7236 28.6201 25.0566C29.5518 24.3896 30.3284 23.534 30.8975 22.5469C31.6199 21.3185 32.0003 19.9236 32 18.5034C31.9997 16.5057 31.248 14.5792 29.8907 13.0969L29.8904 13.0965ZM17.7004 29.9079H17.692C16.2733 29.9076 14.8996 29.4163 13.8099 28.52C13.8746 28.4856 13.9385 28.4499 14.0017 28.4129L20.4591 24.7325C20.6203 24.642 20.7543 24.511 20.8475 24.3528C20.9407 24.1947 20.9899 24.015 20.9899 23.832V14.8433L23.7194 16.3983C23.7337 16.4054 23.746 16.4158 23.7553 16.4287C23.7645 16.4415 23.7704 16.4565 23.7724 16.4722V23.911C23.7687 27.2184 21.0525 29.9011 17.7004 29.9079ZM4.64224 24.405C4.10885 23.495 3.82783 22.4625 3.82746 21.4112C3.82746 21.0684 3.85781 20.7246 3.91691 20.3868C3.96493 20.4151 4.04871 20.4656 4.10882 20.4997L10.5663 24.18C10.7273 24.2728 10.9104 24.3216 11.0968 24.3216C11.2832 24.3215 11.4663 24.2726 11.6272 24.1798L19.5111 19.6882V22.7983L19.5112 22.8037C19.5112 22.8186 19.5077 22.8334 19.5009 22.8468C19.4941 22.8602 19.4843 22.8719 19.4721 22.8809L12.9442 26.5997C12.0206 27.1242 10.9736 27.4006 9.90788 27.4009C8.84106 27.4006 7.79297 27.1239 6.86878 26.5979C5.94459 26.072 5.17676 25.3157 4.64224 24.4047V24.405ZM2.94341 10.4955C3.65264 9.27998 4.7725 8.34929 6.10701 7.86629C6.10701 7.92114 6.10384 8.01834 6.10384 8.08581V15.4466L6.10375 15.4526C6.10378 15.6354 6.15281 15.8149 6.24592 15.9729C6.339 16.1309 6.4728 16.2618 6.63375 16.3523L14.5176 20.8432L11.7883 22.3983C11.7749 22.407 11.7594 22.4123 11.7434 22.4138C11.7273 22.4152 11.7111 22.4127 11.6963 22.4065L5.16771 18.6845C4.24481 18.157 3.47861 17.3994 2.94593 16.4876C2.41329 15.5759 2.13282 14.542 2.1327 13.4896C2.13313 12.4389 2.41276 11.4066 2.94375 10.4958L2.94341 10.4955ZM25.3683 15.6444L17.4844 11.1529L20.2138 9.59849C20.2272 9.58971 20.2427 9.58436 20.2587 9.58291C20.2748 9.5815 20.291 9.58399 20.3058 9.59021L26.8343 13.3091C27.7579 13.8358 28.525 14.593 29.0584 15.5046C29.5915 16.4163 29.8725 17.4503 29.8728 18.503C29.8728 21.0154 28.2837 23.2635 25.8947 24.1312V16.5504C25.8951 16.5476 25.8951 16.5446 25.8951 16.5419C25.895 16.3598 25.8463 16.1809 25.7538 16.0234C25.6613 15.8658 25.5283 15.7351 25.3683 15.6444ZM28.0848 11.6102C28.0214 11.5718 27.9574 11.5342 27.8931 11.4974L21.4356 7.81692C21.2746 7.72434 21.0916 7.67555 20.9052 7.67546C20.7189 7.67555 20.5359 7.72434 20.3749 7.81692L12.4909 12.3085V9.19841L12.4908 9.19305C12.4908 9.16267 12.5054 9.13405 12.53 9.11586L19.0578 5.40009C19.9812 4.87487 21.0283 4.59837 22.0941 4.59831C25.4506 4.59831 28.1725 7.284 28.1725 10.5958C28.1722 10.9357 28.143 11.2749 28.0848 11.6099V11.6102ZM11.007 17.1534L8.27699 15.5984C8.26267 15.5914 8.25033 15.5809 8.24107 15.568C8.2318 15.5552 8.22589 15.5402 8.22389 15.5246V8.0856C8.22537 4.7756 10.9473 2.09213 14.3023 2.09213C15.7232 2.09244 17.0992 2.58359 18.1915 3.48036C18.1423 3.50683 18.0566 3.55352 17.9996 3.5876L11.5422 7.26793C11.3811 7.35836 11.2471 7.4893 11.1539 7.64739C11.0606 7.8055 11.0115 7.98513 11.0115 8.16803V8.17397L11.007 17.1534ZM12.4897 13.9993L16.001 11.9982L19.5123 13.9979V17.9988L16.001 19.9987L12.4897 17.9988V13.9993Z" fill="black"/>
</svg>
